<?xml version="1.0" encoding="UTF-8" standalone="no"?>
<!-- Created with Inkscape (http://www.inkscape.org/) -->

<svg
   width="70mm"
   height="70mm"
   viewBox="0 0 70 70"
   version="1.1"
   id="svg5"
   xml:space="preserve"
   inkscape:version="1.2.2 (732a01da63, 2022-12-09)"
   sodipodi:docname="OpenDroneDatabase_logo.svg"
   xmlns:inkscape="http://www.inkscape.org/namespaces/inkscape"
   xmlns:sodipodi="http://sodipodi.sourceforge.net/DTD/sodipodi-0.dtd"
   xmlns="http://www.w3.org/2000/svg"
   xmlns:svg="http://www.w3.org/2000/svg"><sodipodi:namedview
     id="namedview7"
     pagecolor="#ffffff"
     bordercolor="#666666"
     borderopacity="1.0"
     inkscape:showpageshadow="2"
     inkscape:pageopacity="0.0"
     inkscape:pagecheckerboard="0"
     inkscape:deskcolor="#d1d1d1"
     inkscape:document-units="mm"
     showgrid="false"
     inkscape:zoom="0.38395763"
     inkscape:cx="-592.51329"
     inkscape:cy="197.93851"
     inkscape:window-width="1920"
     inkscape:window-height="1017"
     inkscape:window-x="1072"
     inkscape:window-y="457"
     inkscape:window-maximized="1"
     inkscape:current-layer="layer1" /><defs
     id="defs2"><style
       id="style899">.cls-1,.cls-2{fill:none;stroke:#0832ff;stroke-linecap:round;stroke-linejoin:round;}.cls-1{stroke-width:2px;}.cls-3{fill:#0832ff;}</style></defs><g
     inkscape:label="Layer 1"
     inkscape:groupmode="layer"
     id="layer1"><path
       id="path398"
       style="color:#000000;fill:#2e85c7;fill-opacity:1;stroke-width:1.82923;stroke-miterlimit:3.6;-inkscape-stroke:none;paint-order:stroke fill markers"
       d="m 34.098693,6.4724731 c -3.195428,0 -6.270721,0.5151806 -9.150346,1.4634766 l 0.982886,1.6004191 c 2.57955,-0.8019206 5.322485,-1.23455 8.16746,-1.23455 13.056115,0 23.969266,9.0967382 26.756506,21.3030922 l 1.824178,-0.205672 C 59.774971,16.290666 48.07554,6.4724731 34.098693,6.4724731 Z M 6.5127807,25.940019 c -1.0923833,3.068023 -1.6882691,6.369876 -1.6882691,9.81077 0,16.157871 13.1163104,29.275216 29.2741814,29.275216 8.495028,0 16.148184,-3.627162 21.497912,-9.414412 l -1.363741,-1.201994 c -5.011155,5.405438 -12.173853,8.787577 -20.134171,8.787577 -15.169285,0 -27.4453524,-12.277101 -27.4453524,-27.446387 0,-3.060966 0.5000227,-6.003935 1.4226521,-8.752437 z" /><g
       id="polygon888"
       transform="matrix(0.75494804,0.79491227,-0.79491227,0.75494804,15.595124,-0.50472491)"><path
         id="path2150"
         style="color:#000000;fill:#000000;stroke-width:2.00062;stroke-linecap:round;stroke-linejoin:round;-inkscape-stroke:none"
         d="M 11.20762,1.389281 A 1.0004106,1.0004106 0 0 0 11.060751,1.6541107 L 4.0603593,20.654689 a 1.0004106,1.0004106 0 0 0 1.4353359,1.214529 l 6.5040228,-3.716791 6.504191,3.716817 a 1.0004106,1.0004106 0 0 0 1.435516,-1.214756 L 12.93929,1.6544642 A 1.0004106,1.0004106 0 0 0 11.999613,0.99986188 1.0004106,1.0004106 0 0 0 11.20762,1.389281 Z" /></g><g
       aria-label="ODD"
       id="text3704"
       style="font-size:29.2214px;line-height:1.25;font-family:'Latin Modern Math';-inkscape-font-specification:'Latin Modern Math';stroke-width:0.730537"
       transform="translate(-1.5875)"><path
         d="m 32.179461,42.102303 q 0,3.053408 -1.027315,5.33633 -1.027315,2.268653 -2.910725,3.467187 -1.883411,1.198534 -4.394625,1.198534 -2.454141,0 -4.351819,-1.198534 -1.897679,-1.212802 -2.953531,-3.438651 -1.041583,-2.240117 -1.070119,-5.179379 v -1.498167 q 0,-2.996335 1.041583,-5.293525 1.041583,-2.29719 2.939262,-3.509993 1.911947,-1.22707 4.366088,-1.22707 2.496946,0 4.394624,1.212802 1.911947,1.198534 2.939262,3.495724 1.027315,2.282922 1.027315,5.322062 z m -2.725238,-1.341217 q 0,-3.695479 -1.483899,-5.6645 -1.483899,-1.983288 -4.152064,-1.983288 -2.596824,0 -4.094991,1.983288 -1.483899,1.969021 -1.526704,5.479013 v 1.526704 q 0,3.581333 1.498167,5.635963 1.512436,2.040361 4.152064,2.040361 2.653897,0 4.10926,-1.926215 1.455362,-1.940483 1.498167,-5.550354 z"
         style="font-family:Roboto;-inkscape-font-specification:Roboto"
         id="path3706" /><path
         d="M 36.28872,51.818989 V 31.0444 h 5.864256 q 2.710969,0 4.794136,1.198534 2.083166,1.198534 3.210358,3.410115 1.141461,2.21158 1.15573,5.079501 v 1.326948 q 0,2.939262 -1.141461,5.150842 -1.127193,2.211581 -3.238896,3.395847 -2.097434,1.184265 -4.894013,1.212802 z m 2.739507,-18.520203 v 16.280086 h 2.882188 q 3.167554,0 4.922551,-1.96902 1.769264,-1.96902 1.769264,-5.607427 v -1.212802 q 0,-3.538529 -1.669387,-5.493281 -1.655118,-1.96902 -4.708526,-1.997556 z"
         style="font-family:Roboto;-inkscape-font-specification:Roboto;fill:#2e85c7;fill-opacity:1"
         id="path3708" /><path
         d="M 55.450996,51.818989 V 31.0444 h 5.864255 q 2.71097,0 4.794136,1.198534 2.083166,1.198534 3.210359,3.410115 1.141461,2.21158 1.155729,5.079501 v 1.326948 q 0,2.939262 -1.141461,5.150842 -1.127193,2.211581 -3.238895,3.395847 -2.097435,1.184265 -4.894014,1.212802 z m 2.739506,-18.520203 v 16.280086 h 2.882189 q 3.167554,0 4.92255,-1.96902 1.769264,-1.96902 1.769264,-5.607427 v -1.212802 q 0,-3.538529 -1.669386,-5.493281 Q 64.44,33.327322 61.386592,33.298786 Z"
         style="font-family:Roboto;-inkscape-font-specification:Roboto"
         id="path3710" /></g></g></svg>
