<?xml version="1.0" encoding="UTF-8" standalone="no"?>
<!-- Created with Inkscape (http://www.inkscape.org/) -->

<svg
   width="200mm"
   height="70mm"
   viewBox="0 0 200 70"
   version="1.1"
   id="svg5"
   xml:space="preserve"
   inkscape:version="1.2.2 (732a01da63, 2022-12-09)"
   sodipodi:docname="OpenDroneDatabase_logo_full.svg"
   xmlns:inkscape="http://www.inkscape.org/namespaces/inkscape"
   xmlns:sodipodi="http://sodipodi.sourceforge.net/DTD/sodipodi-0.dtd"
   xmlns="http://www.w3.org/2000/svg"
   xmlns:svg="http://www.w3.org/2000/svg"><sodipodi:namedview
     id="namedview7"
     pagecolor="#ffffff"
     bordercolor="#666666"
     borderopacity="1.0"
     inkscape:showpageshadow="2"
     inkscape:pageopacity="0.0"
     inkscape:pagecheckerboard="0"
     inkscape:deskcolor="#d1d1d1"
     inkscape:document-units="mm"
     showgrid="false"
     inkscape:zoom="0.54299809"
     inkscape:cx="571.82522"
     inkscape:cy="467.77328"
     inkscape:window-width="1920"
     inkscape:window-height="1017"
     inkscape:window-x="1072"
     inkscape:window-y="457"
     inkscape:window-maximized="1"
     inkscape:current-layer="layer1" /><defs
     id="defs2"><style
       id="style899">.cls-1,.cls-2{fill:none;stroke:#0832ff;stroke-linecap:round;stroke-linejoin:round;}.cls-1{stroke-width:2px;}.cls-3{fill:#0832ff;}</style></defs><g
     inkscape:label="Layer 1"
     inkscape:groupmode="layer"
     id="layer1"><g
       aria-label="Open DroneDatabase"
       id="text236"
       style="font-size:10.5833px;line-height:1.25;font-family:'Latin Modern Math';-inkscape-font-specification:'Latin Modern Math';stroke:none;stroke-width:0.264583"
       transform="matrix(1.8292267,0,0,1.8292267,-94.967471,-43.923892)"><path
         d="m 66.612346,46.78479 q 0,1.105872 -0.372069,1.932692 -0.372069,0.821653 -1.054196,1.255734 -0.682127,0.43408 -1.591629,0.43408 -0.888832,0 -1.576126,-0.43408 Q 61.331031,49.533967 60.948627,48.727817 60.57139,47.9165 60.561055,46.851969 v -0.542601 q 0,-1.085201 0.377237,-1.917189 0.377236,-0.831988 1.064531,-1.271237 0.692462,-0.444415 1.581293,-0.444415 0.904335,0 1.59163,0.439248 0.692462,0.43408 1.064531,1.266068 0.372069,0.826821 0.372069,1.927525 z m -0.987017,-0.485757 q 0,-1.338415 -0.537433,-2.051548 -0.537433,-0.7183 -1.50378,-0.7183 -0.940508,0 -1.483108,0.7183 -0.537434,0.713133 -0.552936,1.984369 v 0.552936 q 0,1.297074 0.5426,2.041212 0.547769,0.738971 1.50378,0.738971 0.961178,0 1.488276,-0.69763 0.527098,-0.702797 0.542601,-2.010206 z"
         style="font-family:Roboto;-inkscape-font-specification:Roboto;stroke:none"
         id="path1051" /><path
         d="m 72.673972,47.570269 q 0,1.276404 -0.583942,2.056716 -0.583942,0.780311 -1.581294,0.780311 -1.018022,0 -1.601964,-0.645953 v 2.692333 h -0.956011 v -7.741105 h 0.873329 l 0.04651,0.620116 q 0.583942,-0.723468 1.622635,-0.723468 1.007687,0 1.591629,0.759641 0.589109,0.759641 0.589109,2.113559 z m -0.956011,-0.10852 q 0,-0.945676 -0.403075,-1.493444 -0.403075,-0.547769 -1.105872,-0.547769 -0.868161,0 -1.302242,0.769977 v 2.671663 q 0.428913,0.764809 1.312577,0.764809 0.687295,0 1.09037,-0.542601 0.408242,-0.547769 0.408242,-1.622635 z"
         style="font-family:Roboto;-inkscape-font-specification:Roboto;stroke:none"
         id="path1053" /><path
         d="m 76.208628,50.407296 q -1.136878,0 -1.85001,-0.744138 -0.713133,-0.749306 -0.713133,-1.999872 v -0.175699 q 0,-0.831988 0.315226,-1.483109 0.320392,-0.656288 0.888831,-1.02319 0.573607,-0.372069 1.240231,-0.372069 1.090369,0 1.694981,0.7183 0.604613,0.7183 0.604613,2.056716 v 0.397907 h -3.787871 q 0.02067,0.82682 0.48059,1.338415 0.465086,0.506428 1.178218,0.506428 0.506428,0 0.857826,-0.206706 0.351399,-0.206705 0.614948,-0.547768 l 0.583942,0.454751 q -0.702797,1.080034 -2.108392,1.080034 z m -0.118855,-5.012598 q -0.578774,0 -0.971514,0.423746 -0.39274,0.418577 -0.485757,1.178218 h 2.800854 v -0.07235 q -0.04134,-0.728636 -0.39274,-1.126543 -0.351399,-0.403075 -0.950843,-0.403075 z"
         style="font-family:Roboto;-inkscape-font-specification:Roboto;stroke:none"
         id="path1055" /><path
         d="m 80.399573,44.712571 0.03101,0.702798 q 0.640785,-0.80615 1.674311,-0.80615 1.772496,0 1.787999,1.999871 v 3.694854 h -0.956011 v -3.700021 q -0.0052,-0.604612 -0.279052,-0.894 -0.268717,-0.289387 -0.842323,-0.289387 -0.465087,0 -0.816485,0.248046 -0.351399,0.248047 -0.547769,0.651121 v 3.984241 h -0.956011 v -5.591373 z"
         style="font-family:Roboto;-inkscape-font-specification:Roboto;stroke:none"
         id="path1057" /><path
         d="M 88.104505,50.303944 V 42.779879 H 90.2284 q 0.981849,0 1.736323,0.434081 0.754473,0.43408 1.162716,1.235062 0.41341,0.800983 0.418577,1.839676 v 0.480589 q 0,1.064531 -0.41341,1.865513 -0.408242,0.800982 -1.173051,1.229895 -0.759641,0.428913 -1.772496,0.439249 z m 0.992185,-6.70758 v 5.896262 h 1.04386 q 1.147213,0 1.782831,-0.713132 0.640786,-0.713133 0.640786,-2.030878 v -0.439248 q 0,-1.281571 -0.604612,-1.989536 -0.599445,-0.713133 -1.705317,-0.723468 z"
         style="font-family:Roboto;-inkscape-font-specification:Roboto;fill:#2e85c7;fill-opacity:1;stroke:none;stroke-opacity:1"
         id="path1059" /><path
         d="m 97.597436,45.570398 q -0.217041,-0.03617 -0.470255,-0.03617 -0.940508,0 -1.276403,0.800982 v 3.968738 h -0.956011 v -5.591373 h 0.930173 l 0.0155,0.645954 q 0.470254,-0.749306 1.333248,-0.749306 0.279052,0 0.423746,0.07235 z"
         style="font-family:Roboto;-inkscape-font-specification:Roboto;fill:#2e85c7;fill-opacity:1;stroke:none;stroke-opacity:1"
         id="path1061" /><path
         d="m 98.119367,47.456581 q 0,-0.821652 0.320393,-1.477941 0.32556,-0.656289 0.899167,-1.012855 0.578774,-0.356566 1.317743,-0.356566 1.14205,0 1.84484,0.790647 0.70797,0.790647 0.70797,2.103224 v 0.06718 q 0,0.816485 -0.31523,1.467606 -0.31005,0.645953 -0.894,1.007687 -0.57877,0.361734 -1.33324,0.361734 -1.136881,0 -1.844846,-0.790647 -0.702797,-0.790647 -0.702797,-2.092889 z m 0.961178,0.113688 q 0,0.930173 0.428913,1.493444 0.434081,0.563272 1.157552,0.563272 0.72863,0 1.15755,-0.568439 0.42891,-0.573607 0.42891,-1.601965 0,-0.919837 -0.43925,-1.488276 -0.43408,-0.573607 -1.15755,-0.573607 -0.707963,0 -1.142044,0.563272 -0.434081,0.563271 -0.434081,1.612299 z"
         style="font-family:Roboto;-inkscape-font-specification:Roboto;fill:#2e85c7;fill-opacity:1;stroke:none;stroke-opacity:1"
         id="path1063" /><path
         d="m 105.3127,44.712571 0.031,0.702798 q 0.64078,-0.80615 1.67431,-0.80615 1.77249,0 1.788,1.999871 v 3.694854 H 107.85 v -3.700021 q -0.005,-0.604612 -0.27906,-0.894 -0.26871,-0.289387 -0.84232,-0.289387 -0.46509,0 -0.81648,0.248046 -0.3514,0.248047 -0.54777,0.651121 v 3.984241 h -0.95601 v -5.591373 z"
         style="font-family:Roboto;-inkscape-font-specification:Roboto;fill:#2e85c7;fill-opacity:1;stroke:none;stroke-opacity:1"
         id="path1065" /><path
         d="m 112.56805,50.407296 q -1.13688,0 -1.85001,-0.744138 -0.71313,-0.749306 -0.71313,-1.999872 v -0.175699 q 0,-0.831988 0.31522,-1.483109 0.3204,-0.656288 0.88884,-1.02319 0.5736,-0.372069 1.24023,-0.372069 1.09036,0 1.69498,0.7183 0.60461,0.7183 0.60461,2.056716 v 0.397907 h -3.78787 q 0.0207,0.82682 0.48059,1.338415 0.46508,0.506428 1.17822,0.506428 0.50642,0 0.85782,-0.206706 0.3514,-0.206705 0.61495,-0.547768 l 0.58394,0.454751 q -0.70279,1.080034 -2.10839,1.080034 z m -0.11885,-5.012598 q -0.57878,0 -0.97152,0.423746 -0.39274,0.418577 -0.48576,1.178218 h 2.80086 v -0.07235 q -0.0413,-0.728636 -0.39274,-1.126543 -0.3514,-0.403075 -0.95084,-0.403075 z"
         style="font-family:Roboto;-inkscape-font-specification:Roboto;fill:#2e85c7;fill-opacity:1;stroke:none;stroke-opacity:1"
         id="path1067" /><path
         d="m 116.00452,50.303944 v -7.524065 h 2.1239 q 0.98185,0 1.73632,0.434081 0.75447,0.43408 1.16272,1.235062 0.41341,0.800983 0.41857,1.839676 v 0.480589 q 0,1.064531 -0.41341,1.865513 -0.40824,0.800982 -1.17305,1.229895 -0.75964,0.428913 -1.77249,0.439249 z m 0.99219,-6.70758 v 5.896262 h 1.04386 q 1.14721,0 1.78283,-0.713132 0.64079,-0.713133 0.64079,-2.030878 v -0.439248 q 0,-1.281571 -0.60462,-1.989536 -0.59944,-0.713133 -1.70531,-0.723468 z"
         style="font-family:Roboto;-inkscape-font-specification:Roboto;stroke:none"
         id="path1069" /><path
         d="m 126.24676,50.303944 q -0.0827,-0.165364 -0.13436,-0.58911 -0.66662,0.692462 -1.59163,0.692462 -0.82682,0 -1.35908,-0.465086 -0.5271,-0.470254 -0.5271,-1.188554 0,-0.873329 0.66145,-1.353919 0.66663,-0.485757 1.87068,-0.485757 h 0.93018 v -0.439248 q 0,-0.50126 -0.29973,-0.795814 -0.29972,-0.299723 -0.88366,-0.299723 -0.51159,0 -0.85783,0.258382 -0.34623,0.258381 -0.34623,0.625282 h -0.96118 q 0,-0.418577 0.29456,-0.806149 0.29972,-0.39274 0.80615,-0.620115 0.51159,-0.227376 1.12137,-0.227376 0.96635,0 1.51412,0.485757 0.54777,0.480589 0.56844,1.32808 v 2.573478 q 0,0.769976 0.19637,1.224728 v 0.08268 z m -1.58646,-0.728636 q 0.44958,0 0.85266,-0.232543 0.40307,-0.232543 0.58394,-0.604612 V 47.59094 h -0.74931 q -1.75699,0 -1.75699,1.028357 0,0.449584 0.29972,0.702798 0.29972,0.253213 0.76998,0.253213 z"
         style="font-family:Roboto;-inkscape-font-specification:Roboto;stroke:none"
         id="path1071" /><path
         d="m 129.84859,43.358653 v 1.353918 h 1.04387 v 0.738971 h -1.04387 v 3.467478 q 0,0.335895 0.13953,0.506427 0.13953,0.165364 0.47542,0.165364 0.16537,0 0.45475,-0.06201 v 0.775144 q -0.37723,0.103352 -0.7338,0.103352 -0.64079,0 -0.96635,-0.387572 -0.32556,-0.387572 -0.32556,-1.100704 v -3.467478 h -1.01802 v -0.738971 h 1.01802 v -1.353918 z"
         style="font-family:Roboto;-inkscape-font-specification:Roboto;stroke:none"
         id="path1073" /><path
         d="m 135.46064,50.303944 q -0.0827,-0.165364 -0.13436,-0.58911 -0.66662,0.692462 -1.59163,0.692462 -0.82682,0 -1.35908,-0.465086 -0.5271,-0.470254 -0.5271,-1.188554 0,-0.873329 0.66146,-1.353919 0.66662,-0.485757 1.87068,-0.485757 h 0.93017 v -0.439248 q 0,-0.50126 -0.29972,-0.795814 -0.29973,-0.299723 -0.88367,-0.299723 -0.51159,0 -0.85782,0.258382 -0.34623,0.258381 -0.34623,0.625282 h -0.96118 q 0,-0.418577 0.29455,-0.806149 0.29972,-0.39274 0.80615,-0.620115 0.5116,-0.227376 1.12138,-0.227376 0.96634,0 1.51411,0.485757 0.54777,0.480589 0.56844,1.32808 v 2.573478 q 0,0.769976 0.19637,1.224728 v 0.08268 z m -1.58646,-0.728636 q 0.44958,0 0.85266,-0.232543 0.40307,-0.232543 0.58394,-0.604612 V 47.59094 h -0.74931 q -1.75699,0 -1.75699,1.028357 0,0.449584 0.29972,0.702798 0.29973,0.253213 0.76998,0.253213 z"
         style="font-family:Roboto;-inkscape-font-specification:Roboto;stroke:none"
         id="path1075" /><path
         d="m 142.49894,47.570269 q 0,1.281572 -0.58911,2.061883 -0.58911,0.775144 -1.58129,0.775144 -1.05937,0 -1.63814,-0.749306 l -0.0465,0.645954 h -0.87849 v -7.937475 h 0.95601 v 2.96105 q 0.57877,-0.7183 1.59679,-0.7183 1.01803,0 1.5968,0.769976 0.58394,0.769977 0.58394,2.108392 z m -0.95601,-0.10852 q 0,-0.976682 -0.37724,-1.508947 -0.37723,-0.532266 -1.0852,-0.532266 -0.94567,0 -1.35908,0.878497 v 2.418449 q 0.43924,0.878497 1.36942,0.878497 0.68729,0 1.0697,-0.532266 0.3824,-0.532265 0.3824,-1.601964 z"
         style="font-family:Roboto;-inkscape-font-specification:Roboto;stroke:none"
         id="path1077" /><path
         d="m 147.15498,50.303944 q -0.0827,-0.165364 -0.13436,-0.58911 -0.66663,0.692462 -1.59163,0.692462 -0.82682,0 -1.35909,-0.465086 -0.52709,-0.470254 -0.52709,-1.188554 0,-0.873329 0.66145,-1.353919 0.66663,-0.485757 1.87068,-0.485757 h 0.93018 v -0.439248 q 0,-0.50126 -0.29973,-0.795814 -0.29972,-0.299723 -0.88366,-0.299723 -0.5116,0 -0.85783,0.258382 -0.34623,0.258381 -0.34623,0.625282 h -0.96118 q 0,-0.418577 0.29456,-0.806149 0.29972,-0.39274 0.80615,-0.620115 0.51159,-0.227376 1.12137,-0.227376 0.96635,0 1.51412,0.485757 0.54777,0.480589 0.56844,1.32808 v 2.573478 q 0,0.769976 0.19637,1.224728 v 0.08268 z m -1.58646,-0.728636 q 0.44958,0 0.85265,-0.232543 0.40308,-0.232543 0.58395,-0.604612 V 47.59094 h -0.74931 q -1.75699,0 -1.75699,1.028357 0,0.449584 0.29972,0.702798 0.29972,0.253213 0.76998,0.253213 z"
         style="font-family:Roboto;-inkscape-font-specification:Roboto;stroke:none"
         id="path1079" /><path
         d="m 152.71534,48.820835 q 0,-0.387572 -0.29455,-0.599445 -0.28939,-0.21704 -1.01802,-0.372069 -0.72347,-0.155029 -1.15238,-0.372069 -0.42375,-0.217041 -0.63045,-0.516763 -0.20154,-0.299722 -0.20154,-0.713132 0,-0.687295 0.57877,-1.162716 0.58394,-0.475422 1.48828,-0.475422 0.95084,0 1.53995,0.490924 0.59428,0.490925 0.59428,1.255734 h -0.96118 q 0,-0.39274 -0.3359,-0.676959 -0.33072,-0.28422 -0.83715,-0.28422 -0.52193,0 -0.81649,0.227376 -0.29455,0.227375 -0.29455,0.594277 0,0.346231 0.27388,0.52193 0.27389,0.175699 0.98702,0.335896 0.7183,0.160196 1.16272,0.382404 0.44441,0.222208 0.65628,0.537433 0.21704,0.310058 0.21704,0.759642 0,0.749305 -0.59944,1.204057 -0.59944,0.449583 -1.55546,0.449583 -0.67179,0 -1.18855,-0.237711 -0.51676,-0.23771 -0.81132,-0.661456 -0.28938,-0.428913 -0.28938,-0.925005 h 0.95601 q 0.0258,0.480589 0.3824,0.764809 0.36173,0.279052 0.95084,0.279052 0.5426,0 0.86817,-0.217041 0.33072,-0.222208 0.33072,-0.589109 z"
         style="font-family:Roboto;-inkscape-font-specification:Roboto;stroke:none"
         id="path1081" /><path
         d="m 157.23702,50.407296 q -1.13688,0 -1.85001,-0.744138 -0.71313,-0.749306 -0.71313,-1.999872 v -0.175699 q 0,-0.831988 0.31522,-1.483109 0.32039,-0.656288 0.88883,-1.02319 0.57361,-0.372069 1.24023,-0.372069 1.09037,0 1.69499,0.7183 0.60461,0.7183 0.60461,2.056716 v 0.397907 h -3.78787 q 0.0207,0.82682 0.48059,1.338415 0.46508,0.506428 1.17822,0.506428 0.50642,0 0.85782,-0.206706 0.3514,-0.206705 0.61495,-0.547768 l 0.58394,0.454751 q -0.7028,1.080034 -2.10839,1.080034 z m -0.11886,-5.012598 q -0.57877,0 -0.97151,0.423746 -0.39274,0.418577 -0.48576,1.178218 h 2.80086 v -0.07235 q -0.0413,-0.728636 -0.39274,-1.126543 -0.3514,-0.403075 -0.95085,-0.403075 z"
         style="font-family:Roboto;-inkscape-font-specification:Roboto;stroke:none"
         id="path1083" /></g><path
       id="path398"
       style="color:#000000;fill:#2e85c7;fill-opacity:1;stroke-width:1.82923;stroke-miterlimit:3.6;-inkscape-stroke:none;paint-order:stroke fill markers"
       d="m 35.68617,6.4727194 c -3.195431,0 -6.270673,0.514995 -9.150301,1.463292 l 0.983091,1.6003559 c 2.579553,-0.8019214 5.322232,-1.2345329 8.16721,-1.2345329 15.169301,0 27.44618,12.2797106 27.44618,27.4490126 0,15.169301 -12.276879,27.44618 -27.44618,27.44618 -15.1693,0 -27.4452318,-12.276879 -27.4452318,-27.44618 0,-3.060969 0.5000137,-6.003833 1.4226441,-8.752338 L 8.1000912,25.939797 c -1.0923844,3.068026 -1.6882671,6.370152 -1.6882671,9.81105 0,16.157887 13.1164589,29.275295 29.2743459,29.275295 16.157889,0 29.275297,-13.117408 29.275295,-29.275295 0,-16.157887 -13.117406,-29.2781276 -29.275295,-29.2781276 z" /><g
       id="polygon888"
       transform="matrix(0.75494804,0.79491227,-0.79491227,0.75494804,17.182625,-0.50472491)"><path
         id="path2150"
         style="color:#000000;fill:#000000;stroke-width:2.00062;stroke-linecap:round;stroke-linejoin:round;-inkscape-stroke:none"
         d="M 11.20762,1.389281 A 1.0004106,1.0004106 0 0 0 11.060751,1.6541107 L 4.0603593,20.654689 a 1.0004106,1.0004106 0 0 0 1.4353359,1.214529 l 6.5040228,-3.716791 6.504191,3.716817 a 1.0004106,1.0004106 0 0 0 1.435516,-1.214756 L 12.93929,1.6544642 A 1.0004106,1.0004106 0 0 0 11.999613,0.99986188 1.0004106,1.0004106 0 0 0 11.20762,1.389281 Z" /></g></g></svg>
